<?xml version="1.0" encoding="utf-8"?>

<!DOCTYPE svg PUBLIC "-//W3C//DTD SVG 1.1//EN" "http://www.w3.org/Graphics/SVG/1.1/DTD/svg11.dtd">
<!-- Uploaded to: SVG Repo, www.svgrepo.com, Generator: SVG Repo Mixer Tools -->
<svg height="800px" width="800px" version="1.1" id="_x32_" xmlns="http://www.w3.org/2000/svg" xmlns:xlink="http://www.w3.org/1999/xlink" 
	 viewBox="0 0 512 512"  xml:space="preserve">
<style type="text/css">
	.st0{fill:#000000;}
</style>
<g>
	<path class="st0" d="M440.982,179.047c31.455-10.869,50.788-74.986,34.14-101.954c0.619,17.314-30.526,30.426-41.388,11.813
		C426.709,58.742,485.047,29.438,512,25.616c-12.803-19.271-83.179-27.726-108.67,7.11c-17.166,23.448-11.928,38.796-34.704,30.109
		c-24.91-9.531-3.18-43.817,16.756-50.045c-78.584-14.536-58.477,66.012-87.976,58.268c-29.505-7.736-1.88-32.708,1.331-35.919
		c-52.97-8.456-40.336,46.618-81.246,57.224c-24.252,9.09-38.34,10.877-51.399,13.144C95.967,117.715,34.612,167.009,10.413,239.249
		c-35.106,104.878,21.437,218.336,126.3,253.458c104.87,35.107,218.344-21.421,253.466-126.3
		c4.657-13.909,7.682-27.966,9.198-41.976c1.122-10.39,5.678-22.876,9.639-32.113c12.199-28.531,46.795-38.727,55.212-52.095
		c18.83-29.931,3.598-48.738,3.598-48.738s-7.002,17.746-26.883,19.642C421.046,213.031,409.534,189.916,440.982,179.047z
		 M319.788,175.039c12.355,11.488,23.24,25.034,32.168,40.46c6.142,10.645,11.055,21.715,14.722,32.94
		c-2.313,4.58-4.75,9.082-7.326,13.538c-29.149,50.385-72,90.675-124.065,116.63c-4,1.98-7.983,3.86-12.084,5.624
		c-7.821-21.824-11.875-45.001-11.875-68.349c0-1.478,0-2.986,0.039-4.495c23.92-13.074,45.194-30.364,62.817-50.927
		c4.758-5.547,9.26-11.302,13.422-17.321c2.066-2.862,3.991-5.802,5.887-8.796C304.974,216.18,313.893,196.244,319.788,175.039z
		 M113.528,151.622c27.556-15.89,57.487-23.386,87.109-23.386c30.148-0.046,59.916,7.821,86.166,22.628
		c4.881,2.731,9.639,5.756,14.257,8.997c-5.083,22.636-14.057,43.794-26.071,62.802c-1.423,2.259-2.893,4.495-4.456,6.73h-0.046
		c-4.665-3.489-9.462-6.862-14.343-10.103c-49.117-32.554-105.854-50.633-164.655-52.567
		C98.342,161.207,105.66,156.171,113.528,151.622z M48.885,216.768c5.6-9.918,12.192-19.302,19.726-28.051
		c4.124-0.201,8.286-0.302,12.409-0.302c58.199,0,114.572,16.996,163.016,49.124c4.456,2.955,8.827,6.018,13.082,9.221
		c-16.114,18.66-35.671,34.38-57.626,46.185c-23.348-14.567-49.125-24.616-75.908-29.784c-7.186-1.393-14.42-2.452-21.707-3.071
		c-6.932-0.673-13.872-1.014-20.857-1.014c-16.872,0-33.853,1.895-50.587,5.848C34.163,248.107,40.383,231.861,48.885,216.768z
		 M114.796,454.685c-26.241-14.854-48.962-36.631-65.153-64.636c-15.89-27.556-23.387-57.487-23.434-87.108
		c0-4.882,0.225-9.701,0.642-14.544c17.84-4.998,36.089-7.458,54.168-7.458c5.934,0,11.86,0.248,17.738,0.82
		c-0.495,4.874-0.92,9.755-1.206,14.621c-0.418,6.56-0.626,13.151-0.626,19.766c0,51.484,12.525,101.986,36.623,147.675
		C127.12,461.16,120.846,458.127,114.796,454.685z M200.969,477.313c-12.339,0-24.562-1.3-36.546-3.868h-0.046
		c-2.105-3.28-4.132-6.607-6.058-9.972c-25.993-45.086-39.532-95.634-39.532-147.327c0-6.119,0.208-12.262,0.588-18.404
		c0.256-4.348,0.627-8.649,1.099-12.865c24.392,4.789,47.856,14.126,69.022,27.602c-0.039,1.153-0.039,2.298-0.039,3.404
		c0,26.171,4.588,52.033,13.422,76.472c2.467,6.854,5.292,13.584,8.486,20.191c2.166,4.673,4.579,9.252,7.094,13.739
		c8.881,15.697,19.696,30.38,32.345,43.702C234.405,474.923,217.679,477.313,200.969,477.313z M352.713,388.773
		c-14.861,26.249-36.6,48.962-64.643,65.162c-4.843,2.824-9.794,5.338-14.814,7.651c-14.305-13.724-26.241-29.235-35.749-46.053
		c-2.058-3.667-3.977-7.372-5.794-11.148c4.494-1.934,8.904-4.038,13.33-6.235c53.371-26.527,97.784-67.227,128.867-117.953
		c0.959,7.434,1.424,14.915,1.47,22.412C375.38,332.756,367.52,362.532,352.713,388.773z"/>
</g>
</svg>